<svg width="41" height="40" viewBox="0 0 41 40" fill="none" xmlns="http://www.w3.org/2000/svg">
<path d="M20.5002 3.33337C21.4206 3.33337 22.1668 4.07957 22.1668 5.00004V6.66671C22.1668 7.58718 21.4206 8.33337 20.5002 8.33337C19.5797 8.33337 18.8335 7.58718 18.8335 6.66671V5.00004C18.8335 4.07957 19.5797 3.33337 20.5002 3.33337Z" fill="black"/>
<path d="M20.5002 31.6667C21.4206 31.6667 22.1668 32.4129 22.1668 33.3334V35C22.1668 35.9205 21.4206 36.6667 20.5002 36.6667C19.5797 36.6667 18.8335 35.9205 18.8335 35V33.3334C18.8335 32.4129 19.5797 31.6667 20.5002 31.6667Z" fill="black"/>
<path d="M35.5002 21.6667C36.4206 21.6667 37.1668 20.9205 37.1668 20C37.1668 19.0796 36.4206 18.3334 35.5002 18.3334H33.8335C32.913 18.3334 32.1668 19.0796 32.1668 20C32.1668 20.9205 32.913 21.6667 33.8335 21.6667H35.5002Z" fill="black"/>
<path d="M8.8335 20C8.8335 20.9205 8.0873 21.6667 7.16683 21.6667H5.50016C4.57969 21.6667 3.8335 20.9205 3.8335 20C3.8335 19.0796 4.57969 18.3334 5.50016 18.3334H7.16683C8.0873 18.3334 8.8335 19.0796 8.8335 20Z" fill="black"/>
<path d="M28.7497 30.6066L29.9282 31.7852C30.5791 32.436 31.6344 32.436 32.2853 31.7852C32.9361 31.1343 32.9361 30.079 32.2853 29.4281L31.1068 28.2496C30.4559 27.5987 29.4006 27.5987 28.7497 28.2496C28.0989 28.9005 28.0989 29.9558 28.7497 30.6066Z" fill="black"/>
<path d="M12.2506 11.7505C11.5997 12.4013 10.5444 12.4013 9.89356 11.7505L8.71505 10.5719C8.06418 9.92108 8.06418 8.8658 8.71505 8.21493C9.36592 7.56405 10.4212 7.56405 11.0721 8.21493L12.2506 9.39344C12.9015 10.0443 12.9015 11.0996 12.2506 11.7505Z" fill="black"/>
<path d="M8.71505 29.4281C8.06418 30.079 8.06418 31.1343 8.71505 31.7852C9.36592 32.436 10.4212 32.436 11.0721 31.7852L12.2506 30.6066C12.9015 29.9558 12.9015 28.9005 12.2506 28.2496C11.5997 27.5987 10.5444 27.5987 9.89356 28.2496L8.71505 29.4281Z" fill="black"/>
<path d="M28.7497 11.7505C28.0989 11.0996 28.0989 10.0443 28.7497 9.39344L29.9283 8.21493C30.5791 7.56405 31.6344 7.56405 32.2853 8.21493C32.9361 8.8658 32.9361 9.92108 32.2853 10.572L31.1068 11.7505C30.4559 12.4013 29.4006 12.4013 28.7497 11.7505Z" fill="black"/>
<path fill-rule="evenodd" clip-rule="evenodd" d="M20.5002 10.8334C15.4376 10.8334 11.3335 14.9374 11.3335 20C11.3335 25.0627 15.4376 29.1667 20.5002 29.1667C25.5628 29.1667 29.6668 25.0627 29.6668 20C29.6668 14.9374 25.5628 10.8334 20.5002 10.8334ZM14.6668 20C14.6668 16.7784 17.2785 14.1667 20.5002 14.1667C23.7218 14.1667 26.3335 16.7784 26.3335 20C26.3335 23.2217 23.7218 25.8334 20.5002 25.8334C17.2785 25.8334 14.6668 23.2217 14.6668 20Z" fill="black"/>
</svg>
