<svg width="146" height="50" viewBox="0 0 146 50" fill="none" xmlns="http://www.w3.org/2000/svg">
<g clip-path="url(#clip0_123_3731)">
<path d="M17.3502 10.97H24.2902L18.6402 1.26C17.6702 -0.42 15.2302 -0.42 14.2502 1.26L7.30016 13.22L0.340155 25.18C-0.629845 26.86 0.580155 28.95 2.53016 28.95H15.5902V12.72C15.5902 11.75 16.3702 10.97 17.3402 10.97H17.3502Z" fill="#0D2349"/>
<path d="M34.0101 10.97H24.2801L25.5901 13.22L32.5401 25.18C33.5101 26.86 32.3001 28.95 30.3501 28.95H15.6001V38.17C15.6001 39.14 16.3801 39.92 17.3501 39.92H34.0101C42.0101 39.92 48.4901 33.44 48.4901 25.44C48.4901 17.44 42.0101 10.96 34.0101 10.96V10.97ZM42.9401 27.03C42.9401 27.57 42.5001 28 41.9701 28C41.4401 28 41.0001 27.56 41.0001 27.03V23.87C41.0001 23.33 41.4401 22.9 41.9701 22.9C42.5001 22.9 42.9401 23.34 42.9401 23.87V27.03Z" fill="#0D2349"/>
<path d="M56.5801 14.93H61.9601V32.99C61.9601 33.16 61.9601 33.33 61.9901 33.5C62.0201 33.84 62.2701 34.12 62.6001 34.19C62.9301 34.28 63.2801 34.17 63.4801 33.9C63.5901 33.76 63.6801 33.59 63.7401 33.42C65.3801 28.75 67.0201 24.08 68.6601 19.41C68.9001 18.68 69.2301 17.97 69.6201 17.31C70.4501 15.88 71.8701 14.9 73.5001 14.63C74.8101 14.38 76.1501 14.44 77.4301 14.81C79.3201 15.31 80.7401 16.88 81.0401 18.82C81.1401 19.35 81.1901 19.88 81.1901 20.42C81.2001 24.59 81.1901 28.75 81.1901 32.92C81.1901 33.08 81.1901 33.24 81.1901 33.39C81.2001 33.77 81.4601 34.1 81.8301 34.2C82.2001 34.29 82.5901 34.14 82.7901 33.83C82.9001 33.65 82.9901 33.46 83.0501 33.26C84.3401 29.48 85.6301 25.7 86.9201 21.92C87.6701 19.72 88.4201 17.51 89.1801 15.3C89.2201 15.18 89.2701 15.06 89.3201 14.93H95.0701C95.0201 15.1 94.9901 15.25 94.9401 15.39C92.9901 21.02 91.0401 26.65 89.0901 32.27C88.7701 33.2 88.4501 34.13 88.1101 35.05C87.8401 35.8 87.4601 36.51 86.9801 37.16C86.2001 38.23 85.0501 38.98 83.7501 39.24C82.4301 39.54 81.0501 39.51 79.7401 39.17C77.7401 38.73 76.2201 37.1 75.9301 35.08C75.8301 34.53 75.7801 33.96 75.7801 33.4C75.7701 29.25 75.7801 25.09 75.7801 20.94C75.7801 20.81 75.7801 20.68 75.7801 20.55C75.7801 20.2 75.5601 19.88 75.2301 19.76C74.8901 19.62 74.5001 19.72 74.2601 20.01C74.1301 20.16 74.0301 20.33 73.9701 20.52C72.3301 25.18 70.7001 29.83 69.0701 34.49C68.8001 35.31 68.4301 36.1 67.9801 36.83C67.0901 38.24 65.6101 39.17 63.9501 39.35C62.8101 39.52 61.6401 39.46 60.5201 39.19C58.4601 38.73 56.9101 37.01 56.6701 34.91C56.6101 34.48 56.5801 34.05 56.5801 33.62C56.5801 27.55 56.5801 21.49 56.5801 15.42V14.94V14.93Z" fill="#0A2349"/>
<path d="M145.68 31.4399C145.68 26.0399 145.68 20.6499 145.68 15.2499C145.68 15.1399 145.67 15.0199 145.66 14.8999H140.4V15.3899C140.4 20.4299 140.4 25.4799 140.4 30.5199C140.4 30.8199 140.38 31.1199 140.33 31.4199C140.33 31.4399 140.33 31.4599 140.32 31.4899V31.5399C140.16 32.5199 139.4 33.3099 138.41 33.4799C138.09 33.5499 137.76 33.5799 137.44 33.5899C136.14 33.6099 134.85 33.6099 133.55 33.5899C133.12 33.5899 132.69 33.5199 132.28 33.3999C131.47 33.1899 130.85 32.5399 130.69 31.7199C130.6 31.3399 130.56 30.9499 130.56 30.5499C130.56 25.5099 130.56 20.4599 130.56 15.4199V14.8999H125.06V15.3399C125.06 20.6499 125.06 25.9499 125.06 31.2599C125.06 32.1099 125.15 32.9599 125.35 33.7899C125.84 36.1699 127.66 38.0399 130.02 38.5999C130.82 38.8199 131.64 38.9399 132.46 38.9499C134.41 38.9599 136.36 38.9599 138.32 38.9499C139 38.9499 139.68 38.8399 140.34 38.6899V40.3499C140.37 41.1599 140.23 41.9799 139.93 42.7299C139.6 43.6099 138.83 44.2499 137.91 44.4199C137.52 44.4899 137.13 44.5299 136.74 44.5299C133.44 44.5299 130.13 44.5299 126.83 44.5299C125.85 44.5299 125.05 45.3299 125.05 46.3099V48.1799C125.05 49.1599 125.85 49.9599 126.83 49.9599H136.92C137.73 49.9599 138.54 49.8899 139.34 49.7299C142.17 49.2899 144.47 47.2199 145.2 44.4599C145.56 43.2299 145.73 41.9399 145.72 40.6599C145.72 37.7399 145.72 34.8199 145.72 31.8999V31.4899C145.72 31.4899 145.72 31.4599 145.72 31.4399H145.68Z" fill="#0A2349"/>
<path d="M115.52 14.8999V16.4699C115.17 16.2599 114.81 16.0599 114.44 15.8899C113.26 15.3799 112 15.0699 110.71 14.9999C109.69 14.9399 108.67 14.9599 107.64 14.9299C107.01 14.9299 106.38 14.9299 105.75 14.9299C104.66 14.9299 103.58 15.0599 102.52 15.3099C99.6103 15.9299 97.2203 17.9799 96.1503 20.7499C95.6303 22.0699 95.3003 23.4499 95.1903 24.8599C95.0603 26.2599 95.0603 27.6599 95.1903 29.0599C95.2903 30.3499 95.5603 31.6299 96.0003 32.8499C96.8303 35.3399 98.7503 37.3199 101.21 38.2299C102.32 38.6599 103.5 38.8999 104.7 38.9499C106.31 39.0099 107.92 39.0099 109.53 39.0099C110.59 39.0099 111.65 38.8899 112.69 38.6499C113.72 38.4399 114.68 38.0499 115.56 37.5099C115.69 38.3599 116.43 39.0199 117.32 39.0199H119.14C120.13 39.0199 120.92 38.2199 120.92 37.2399V14.8999H115.54H115.52ZM114.53 29.7199C114.46 30.0899 114.36 30.4599 114.23 30.8199C113.81 32.1999 112.64 33.2199 111.22 33.4599C110.63 33.5799 110.03 33.6399 109.43 33.6499C108.23 33.6799 107.02 33.6499 105.81 33.6499C105.04 33.6599 104.26 33.5499 103.53 33.3299C102.45 32.9999 101.57 32.1999 101.14 31.1499C100.81 30.3499 100.61 29.4999 100.55 28.6399C100.41 27.2299 100.45 25.8099 100.69 24.4099C100.75 24.0499 100.84 23.6899 100.95 23.3399C101.39 21.7599 102.74 20.6099 104.37 20.4299C104.91 20.3499 105.46 20.3099 106.01 20.2899C106.55 20.2699 107.09 20.2899 107.62 20.2899C108.48 20.3099 109.35 20.2899 110.21 20.3599C110.73 20.4099 111.25 20.5099 111.74 20.6699C112.78 20.9899 113.63 21.7599 114.05 22.7699C114.38 23.5399 114.59 24.3599 114.65 25.1999C114.82 26.7099 114.77 28.2399 114.51 29.7399L114.53 29.7199Z" fill="#0A2349"/>
</g>
<defs>
<clipPath id="clip0_123_3731">
<rect width="145.69" height="49.97" fill="white"/>
</clipPath>
</defs>
</svg>
