<svg width="40" height="40" viewBox="0 0 40 40" fill="none" xmlns="http://www.w3.org/2000/svg">
<path fill-rule="evenodd" clip-rule="evenodd" d="M12.7762 36.6666H27.2205C32.871 36.6666 36.6659 32.7031 36.6659 26.8054V13.1945C36.6659 7.29677 32.871 3.33325 27.2222 3.33325H12.7762C7.12735 3.33325 3.33252 7.29677 3.33252 13.1945V26.8054C3.33252 32.7031 7.12735 36.6666 12.7762 36.6666ZM14.163 18.3333C11.8653 18.3333 9.99826 16.4638 9.99826 14.1667C9.99826 11.8696 11.8653 10 14.163 10C16.4591 10 18.3278 11.8696 18.3278 14.1667C18.3278 16.4638 16.4591 18.3333 14.163 18.3333ZM33.0331 24.8899C33.5912 26.321 33.3013 28.0409 32.7046 29.4582C31.9974 31.1438 30.6432 32.42 28.9371 32.9773C28.1795 33.225 27.3851 33.3333 26.5924 33.3333H12.5462C11.1484 33.3333 9.91156 32.9979 8.8976 32.3736C8.26241 31.9814 8.15012 31.0767 8.62107 30.4902C9.40877 29.5098 10.1864 28.526 10.9708 27.5336C12.4657 25.6347 13.473 25.0843 14.5925 25.5676C15.0467 25.7671 15.5026 26.0664 15.9718 26.3829C17.2221 27.2326 18.9601 28.4004 21.2494 27.1328C22.8161 26.2553 23.7248 24.7502 24.5161 23.4395L24.5293 23.4176C24.5854 23.3257 24.6409 23.2337 24.6964 23.142L24.6964 23.142C24.9623 22.702 25.2247 22.2679 25.5215 21.8679C25.8935 21.3674 27.2728 19.8022 29.0594 20.9168C30.1974 21.6185 31.1544 22.568 32.1784 23.5845C32.5689 23.9732 32.8471 24.4152 33.0331 24.8899Z" fill="white"/>
</svg>
