<svg width="41" height="40" viewBox="0 0 41 40" fill="none" xmlns="http://www.w3.org/2000/svg">
<path d="M20.5002 5C21.4206 5 22.1668 5.74619 22.1668 6.66667V8.33333C22.1668 9.25381 21.4206 10 20.5002 10C19.5797 10 18.8335 9.25381 18.8335 8.33333V6.66667C18.8335 5.74619 19.5797 5 20.5002 5Z" fill="#111827"/>
<path d="M37.1668 21.6667C37.1668 22.5871 36.4206 23.3333 35.5002 23.3333H33.8335C32.913 23.3333 32.1668 22.5871 32.1668 21.6667C32.1668 20.7462 32.913 20 33.8335 20H35.5002C36.4206 20 37.1668 20.7462 37.1668 21.6667Z" fill="#111827"/>
<path d="M7.16683 23.3333C8.0873 23.3333 8.8335 22.5871 8.8335 21.6667C8.8335 20.7462 8.0873 20 7.16683 20H5.50016C4.57969 20 3.8335 20.7462 3.8335 21.6667C3.8335 22.5871 4.57969 23.3333 5.50016 23.3333H7.16683Z" fill="#111827"/>
<path d="M12.2506 13.4171C11.5997 14.068 10.5444 14.068 9.89356 13.4171L8.71505 12.2386C8.06418 11.5877 8.06418 10.5324 8.71505 9.88155C9.36593 9.23068 10.4212 9.23068 11.0721 9.88155L12.2506 11.0601C12.9015 11.7109 12.9015 12.7662 12.2506 13.4171Z" fill="#111827"/>
<path d="M29.9282 9.88155L28.7497 11.0601C28.0989 11.7109 28.0989 12.7662 28.7497 13.4171C29.4006 14.068 30.4559 14.068 31.1068 13.4171L32.2853 12.2386C32.9361 11.5877 32.9361 10.5324 32.2853 9.88155C31.6344 9.23068 30.5791 9.23068 29.9282 9.88155Z" fill="#111827"/>
<path d="M33.8335 31.6667C33.8335 32.5871 33.0873 33.3333 32.1668 33.3333H8.8335C7.91302 33.3333 7.16683 32.5871 7.16683 31.6667C7.16683 30.7462 7.91302 30 8.8335 30H32.1668C33.0873 30 33.8335 30.7462 33.8335 31.6667Z" fill="#111827"/>
<path d="M15.3144 24.3423C14.18 22.1453 14.5366 19.3807 16.3754 17.5419C18.6534 15.2638 22.3469 15.2638 24.625 17.5419C26.4637 19.3807 26.8204 22.1453 25.6859 24.3423C25.2636 25.1602 25.5843 26.1655 26.4022 26.5879C27.22 27.0102 28.2254 26.6895 28.6477 25.8716C30.4284 22.4231 29.8761 18.079 26.982 15.1849C23.4022 11.605 17.5982 11.605 14.0184 15.1849C11.1242 18.079 10.5719 22.4231 12.3526 25.8716C12.7749 26.6895 13.7803 27.0102 14.5982 26.5879C15.416 26.1655 15.7367 25.1602 15.3144 24.3423Z" fill="#111827"/>
</svg>
