<svg width="41" height="40" viewBox="0 0 41 40" fill="none" xmlns="http://www.w3.org/2000/svg">
<path d="M20.1146 9.13636C20.4245 8.57286 20.3825 7.88137 20.0067 7.3595C19.631 6.83763 18.9885 6.57849 18.3558 6.6936C12.8323 7.69862 8.64432 12.5312 8.64432 18.3454C8.64432 21.3051 9.73211 24.0149 11.5275 26.0904C12.1297 26.7865 13.1822 26.8627 13.8784 26.2605C14.5745 25.6583 14.6507 24.6058 14.0485 23.9096C12.7571 22.4168 11.9777 20.4742 11.9777 18.3454C11.9777 15.2889 13.5898 12.6072 16.0104 11.1065C15.9465 11.5722 15.9135 12.0475 15.9135 12.5301C15.9135 18.2681 20.5651 22.9197 26.3031 22.9197C26.7857 22.9197 27.2609 22.8867 27.7265 22.8228C27.4887 23.2063 27.2212 23.5696 26.9271 23.9096C26.3249 24.6058 26.4011 25.6583 27.0972 26.2605C27.7934 26.8627 28.8459 26.7865 29.4481 26.0904C30.8011 24.5263 31.7531 22.6013 32.1396 20.4774C32.2547 19.8447 31.9956 19.2022 31.4737 18.8265C30.9518 18.4507 30.2603 18.4087 29.6968 18.7186C28.6915 19.2713 27.5366 19.5864 26.3031 19.5864C22.406 19.5864 19.2468 16.4272 19.2468 12.5301C19.2468 11.2966 19.5619 10.1417 20.1146 9.13636Z" fill="black"/>
<path d="M32.1665 33.3333C33.087 33.3333 33.8332 32.5872 33.8332 31.6667C33.8332 30.7462 33.087 30 32.1665 30H8.83317C7.9127 30 7.1665 30.7462 7.1665 31.6667C7.1665 32.5872 7.9127 33.3333 8.83317 33.3333L32.1665 33.3333Z" fill="black"/>
</svg>
